<?xml version="1.0" encoding="UTF-8" standalone="no"?>
<svg
   xmlns:dc="http://purl.org/dc/elements/1.1/"
   xmlns:cc="http://creativecommons.org/ns#"
   xmlns:rdf="http://www.w3.org/1999/02/22-rdf-syntax-ns#"
   xmlns:svg="http://www.w3.org/2000/svg"
   xmlns="http://www.w3.org/2000/svg"
   xmlns:sodipodi="http://sodipodi.sourceforge.net/DTD/sodipodi-0.dtd"
   xmlns:inkscape="http://www.inkscape.org/namespaces/inkscape"
   version="1.1"
   id="Layer_1"
   x="0px"
   y="0px"
   width="361.65683"
   height="529.56897"
   viewBox="0 0 361.65683 529.56897"
   enable-background="new 0 0 576 576"
   xml:space="preserve"
   sodipodi:docname="umbrella.svg"
   inkscape:version="1.0.1 (3bc2e813f5, 2020-09-07)"><sodipodi:namedview
   pagecolor="#ffffff"
   bordercolor="#666666"
   borderopacity="1"
   objecttolerance="10"
   gridtolerance="10"
   guidetolerance="10"
   inkscape:pageopacity="0"
   inkscape:pageshadow="2"
   inkscape:window-width="1920"
   inkscape:window-height="1051"
   id="namedview6"
   showgrid="false"
   inkscape:zoom="1.6617288"
   inkscape:cx="180.82841"
   inkscape:cy="265.18567"
   inkscape:window-x="-9"
   inkscape:window-y="-9"
   inkscape:window-maximized="1"
   inkscape:current-layer="Layer_1" /><metadata
   id="metadata9"><rdf:RDF><cc:Work
       rdf:about=""><dc:format>image/svg+xml</dc:format><dc:type
         rdf:resource="http://purl.org/dc/dcmitype/StillImage" /><dc:title /></cc:Work></rdf:RDF></metadata><defs
   id="defs7" />
<path
   d="m 360.56501,232.533 c -0.165,1.261 -1.157,2.252 -2.419,2.417 -0.119,0.015 -0.242,0.023 -0.363,0.023 -1.123,0 -2.154,-0.68 -2.59,-1.743 -0.132,-0.318 -13.339,-31.864 -41.168,-31.864 -27.486,0 -34.786,29.164 -35.084,30.405 -0.276,1.158 -1.256,2.015 -2.44,2.135 -1.164,0.125 -2.316,-0.518 -2.822,-1.599 -0.159,-0.337 -16.191,-33.741 -50.675,-33.741 -14.559,0 -25.692,6.024 -33.726,13.002 v 225.356 c 2.292,1.796 3.794,4.555 3.794,7.691 v 57.192 c 0.24,3.666 1.985,8.155 8.869,8.155 6.091,0 7.968,-2.512 8.435,-4.73 l 0.908,-20.901 c 0.235,-5.406 4.865,-9.569 10.221,-9.367 5.408,0.234 9.604,4.811 9.367,10.221 l -0.933,21.472 c -0.008,0.182 -0.021,0.362 -0.041,0.542 -0.765,7.738 -7.598,22.37 -27.957,22.37 -20.296,0 -28.146,-16.296 -28.469,-27.248 -0.002,-0.097 -0.005,-0.194 -0.005,-0.291 v -57.414 c 0,-3.498 1.849,-6.548 4.608,-8.284 v -212.21 c -3.337,4.793 -4.975,8.375 -5.024,8.484 -0.495,1.119 -1.654,1.782 -2.879,1.646 -1.215,-0.14 -2.202,-1.053 -2.431,-2.255 -0.285,-1.493 -7.361,-36.582 -38.559,-36.582 -31.663998,0 -43.130998,29.062 -43.243998,29.357 -0.429,1.124 -1.548,1.823 -2.735,1.796 -1.203,-0.05 -2.24,-0.867 -2.573,-2.023 -0.381,-1.318 -9.642,-32.28 -38.619,-32.28 -28.879,0 -36.1959996,27.848 -36.4909996,29.033 -0.345,1.372 -1.671,2.263 -3.058,2.1 -1.403,-0.171 -2.45899999,-1.359 -2.461999985729,-2.771 C -0.00298759,219.706 0.48701241,127.815 57.868012,70.324 88.131012,40.002 128.69401,24.421 178.41901,23.923 c 0,-13.213 2.194,-23.923 4.902,-23.923 2.707,0 4.9,10.71 4.9,23.923 0,0.027 0,0.053 0,0.082 56.645,1.327 100.436,19.064 130.146,52.871 53.723,61.123 42.318,154.719 42.198,155.657 z"
   id="path2"
   class="umbrella"
 />
</svg>
